<?xml version="1.0" encoding="utf-8"?>
<!-- Generator: Adobe Illustrator 24.2.1, SVG Export Plug-In . SVG Version: 6.00 Build 0)  -->
<svg version="1.1" id="Layer_1" xmlns="http://www.w3.org/2000/svg" xmlns:xlink="http://www.w3.org/1999/xlink" x="0px" y="0px"
	 viewBox="0 0 456 456" style="enable-background:new 0 0 456 456;" xml:space="preserve">
<style type="text/css">
	.st0{fill:#FFFFFF;}
</style>
<g id="Layer_2_1_">
	<g>
		<path class="st0" d="M283.7,220.7c0.4,0,0.8,0.1,1.2,0.1c0.2-0.3,0.4-0.7,0.4-1c-0.2-20.3-0.4-40.5-0.7-60.8
			c-0.1-5.1-4.8-9.5-10.5-10.6c-30.6-5.6-61.3-5.5-91.8,0c-5.7,1-10.1,5.3-10.7,10.1c-0.4,3.5-0.7,7.1-0.7,10.6
			c-0.1,16.4-0.1,32.6-0.1,49c0,0.9,0.3,1.9,0.4,2.8c0.4,0,0.8-0.1,1.2-0.1c0-1.8,0-3.6,0-5.4c0.2-17.9,0.4-35.7,0.6-53.6
			c0.1-6.8,3.2-10.5,10.2-11.8c4.5-0.9,9.1-1.4,13.6-2c25.7-3.8,51.4-2.4,76.9,2c5.6,1,9.1,5.2,9.2,10.9c0.3,18.3,0.4,36.5,0.7,54.9
			C283.8,217.4,283.7,219,283.7,220.7z M279,252.3c0,0.3-0.1,0.7-0.1,1c1.5,0.1,3,0.3,4.5,0.3c7.4,0.1,14.9,0.4,22.3,0.1
			c5.9-0.3,9.6,2.1,11.2,7.1c2.5,7.7,4.1,15.6,6.3,23.3c1.1,3.8-0.8,4.6-4.4,4.6c-11.4-0.1-22.8-0.1-34.2-0.1c-1.4,0-2.8,0-5.1,0
			c1.1,0.9,1.4,1.4,1.7,1.4c13.4,0.1,27,0.3,40.4,0c1.2,0,3.7-2.4,3.5-3.4c-1.2-10.1-2.6-20.4-8.4-29.2c-1.4-2.2-4.6-4.7-7.2-4.9
			C299.4,252,289.2,252.3,279,252.3z M176,289.6c-0.1-0.3-0.1-0.6-0.2-0.9c-0.9-0.1-1.8-0.2-2.6-0.2c-12,0-24,0-36,0
			c-2.4,0-4.9-0.1-4.1-3.3c2.2-8.8,4.4-17.5,7.2-26.1c1.2-3.9,4.9-5.6,9.5-5.5c8.1,0.3,16.3,0,24.5-0.1c1.1,0,2.2-0.3,3.3-0.5
			c-9.4-0.9-18.8-0.7-28-0.9c-5.5-0.2-9.5,2.1-11,6.8c-2.8,8.4-4.9,17.1-7.1,25.7c-1,3.8,0.7,5.5,4.9,5.4
			c12.1-0.1,24.3,0.1,36.4,0.1C173.8,290.2,174.9,289.9,176,289.6z M288.3,164.5c0.4,0,0.8,0.1,1.2,0.1c0.1-1.3,0.3-2.6,0.3-3.9
			c0-7.8,0.3-15.6-0.1-23.4c-0.4-7.1,1.3-13.5,5.1-19.4c1-1.5,2.9-2.5,4.5-3.7c0.3,2.1,1,4.3,0.8,6.3c-0.2,1.7-1.6,3.3-2.1,5.1
			c-0.7,2.4-1.6,4.9-1.6,7.4c-0.2,9.6-0.1,19.3-0.1,29c0,0.9,0.3,1.9,0.4,2.8c0.4-0.1,0.8-0.1,1.2-0.2c0-1.4,0-2.6,0-4
			c0-7.9-0.4-15.9,0.1-23.9c0.3-4.5,1.9-9,2.8-13.5c0.5-2.3,1.5-4.7,1.3-7c-0.1-1.4-1.7-3.2-3.2-4c-0.7-0.3-3.2,0.9-3.8,2
			c-2.5,4.8-6.1,9.6-6.5,14.7C287.7,140.6,288.3,152.5,288.3,164.5z M166.2,164.6c0.5,0,1.1,0,1.6,0c0-9.6-0.4-19.2,0.1-28.8
			c0.4-7.5-2.2-14-6-20.1c-1-1.6-3.5-2.5-5.3-3.7c-1,2-2.2,4-2.9,6.1c-0.4,1,0.3,2.6,0.9,3.7c3.5,5.6,3.7,11.8,3.6,18.1
			c-0.2,7-0.1,13.9,0,20.9c0,1.3,0.2,2.6,0.3,3.8c0.4,0,0.9,0,1.3-0.1c0-3.6,0.2-7.2,0-10.7c-0.6-11.5,2.3-23.3-4.1-34.2
			c-0.8-1.4,0.4-3.9,0.6-6c0.6-0.1,1.2-0.1,1.9-0.2c4.4,5.6,7.8,11.7,7.9,19c0.2,9.4,0.1,18.7,0.1,28.1
			C166.2,161.9,166.2,163.3,166.2,164.6z M275,169.9c-31.3-3.8-62.7-3.9-94,0C212.3,167.6,243.6,167.7,275,169.9z M155.1,220.5
			c0.5,0.1,1.1,0.2,1.5,0.3c0.1-1.8,0.4-3.5,0.4-5.3c0-14.3,0.2-28.7-0.1-43c-0.1-3.7,1.7-4.7,4.9-4.8c2.6-0.1,5.1,0,7.7,0
			c-2.8-1.8-8-2.6-11.6-0.7c-1.9,0.9-2.8,3.7-4.5,6.1c-2.7,0.9-7.7-2.1-10.7,2.6c4.4-0.6,8.1-1,12.5-1.6
			C155.1,190,155.1,205.3,155.1,220.5z M299.1,220.7c0.6-0.1,1.2-0.1,1.8-0.2c0-15.2,0-30.4,0-46.3c4.4,0.5,8.2,1,12.3,1.4
			c-2.8-4.9-8.2-1.3-10.8-2.4c-1.6-2.6-2.3-5.5-4-6.1c-3.7-1.6-7.9-1.5-11.7,0.4c1.8,0.3,3.6,0.2,5.3,0.2c6.8-0.2,7.3,0.4,7.2,6.8
			c-0.1,12.6-0.1,25.2-0.1,37.8C299.1,215.2,299.1,217.9,299.1,220.7z M279.8,222.9c0,0.3-0.1,0.8-0.1,1.1c6.3,0,12.6,0.1,18.9,0
			c3,0,4.1,1.1,4,4.1c-0.2,6.5-0.1,13,0,19.5c0,1.1,0.3,2.1,0.4,3.2c0.4,0,0.8-0.1,1.2-0.1c0-8.3,0.1-16.7-0.1-25
			c0-0.9-1.6-2.6-2.5-2.7C294.4,222.8,287.1,222.9,279.8,222.9z M176.5,224c0-0.3,0-0.8,0-1.1c-7.4,0-14.8-0.1-22.2,0.2
			c-0.9,0-2.2,2.4-2.3,3.7c-0.3,7.2-0.1,14.5-0.1,21.7c0,0.8,0.4,1.5,0.8,2.9c0.4-0.9,0.7-1.2,0.7-1.4c0.1-7.2,0.3-14.5,0-21.7
			c-0.1-3.2,1.2-4.3,4.4-4.3C164,224.1,170.3,224,176.5,224z M318.6,332.5c-0.4,1-0.8,2-1,3.1c-0.8,4-2.7,6.7-7.5,6.6
			c-4.9-0.1-9.8,0.3-14.6,0.2c-5.9-0.2-7-1.3-8.3-6.8c-0.3-1.1-0.6-2.1-0.9-3.2c-1.3,7.5,1.4,11.2,8.5,11.5
			c5.2,0.3,10.3,0.2,15.5-0.3C317.3,342.8,319.4,340.1,318.6,332.5z M169.9,332.5c-0.4,1.5-1.1,3-1.3,4.6c-0.7,3.4-2.7,5.2-6.3,5.3
			c-4.6,0.1-9.2,0.3-13.8,0.1c-7.9-0.4-7.9-0.5-10.1-7.8c-0.2-0.7-0.6-1.4-1.2-2.6c-0.6,6.3,1.8,11.1,5.7,11.3
			c6.1,0.5,12.4,0.9,18.6,0.6C168.7,343.4,171.1,339.9,169.9,332.5z M245.8,162.8c0.3,0.1,0.6,0.2,0.9,0.3c-1-1.9-1.6-4.6-3.2-5.3
			c-1.9-0.9-4.9-0.5-6.9,0.4c-1.2,0.6-1.6,3.1-2.5,5c2.7-2,4.5-4.5,6.5-4.6C242.4,158.6,244.1,161.3,245.8,162.8z M184.6,164.3
			c0.3,0,0.6-0.1,0.9-0.1c1.4-1.6,3.1-4.8,4.3-4.6c2.5,0.3,4.7,2.4,8.1,4.4c-1.7-2.2-2.7-4.7-4.5-5.5c-1.8-0.8-4.7-0.5-6.4,0.5
			C185.7,160,185.4,162.5,184.6,164.3z M221.4,162.5c0.8-2.1-0.6-4.5-3.2-5.1c-2.1-0.4-5,0.5-7.1,1.6c-1,0.5-0.8,3-1.1,4.2
			c2-1.9,3.6-4.6,5.1-4.5C217.1,158.8,219,161,221.4,162.5z M258.7,163.4c0.4-0.1,0.6-0.1,1-0.2c2-1.4,4.1-3.9,5.7-3.7
			c2,0.3,3.6,3.1,6.5,5.8c-1.2-2.8-1.5-5.4-2.9-6.2c-1.6-1-4.6-1.3-6.3-0.5C261,159.3,260,161.7,258.7,163.4z"/>
		<path d="M228.2,292.1c30.3,0,60.4,0,90.7,0c2,0,3.8,0,5.8,0.2c2.8,0.3,4.3,1.7,4.3,4.4c0,8.9,0.1,17.9-0.1,26.8
			c-0.1,4.9-3.7,7.8-9.7,7.8c-11.3,0.1-22.5,0-33.8,0c-49.3,0-98.7,0-148.1,0c-7.2,0-10.3-2.8-10.3-9.7c0-7.2,0-14.5,0-21.7
			c0-7.2,0.5-7.7,8.2-7.7C166.2,292.2,197.1,292.2,228.2,292.1C228.2,292.2,228.2,292.1,228.2,292.1z M228.2,293.8
			c-31.4,0-62.9,0.1-94.3-0.1c-3.8,0-5.3,1.1-5.3,4.9c0.2,7.8,0,15.6,0.1,23.4c0,5.3,2.4,7.7,7.7,7.7c60.9,0,121.9,0,182.8,0
			c5.8,0,8-2.3,8.1-7.8c0.1-7.5,0-15,0-22.6c0-5.3-0.3-5.5-5.8-5.5C290.4,293.8,259.3,293.8,228.2,293.8z"/>
		<path d="M227.6,290c-13.8,0-27.6,0-41.4,0c-6,0-6.7-0.8-6.7-6.4c0-20.3,0-40.5,0-60.8c0-6.9,3.1-9.9,10.3-10.6
			c11.3-1.2,22.6-3.2,33.9-3.7c7.7-0.4,15.6,0.8,23.4,1.4c6.5,0.6,12.9,1.6,19.4,2.3c6.6,0.7,9.9,3.9,9.9,10.2c0,20.5,0,41.1,0,61.7
			c0,5-0.7,5.9-6.2,6C256.1,290.1,241.8,290,227.6,290L227.6,290z M228.2,288.6c14,0,27.9-0.1,41.8,0c3.6,0,5-1.2,4.9-4.7
			c-0.2-20.4-0.1-40.9-0.1-61.3c0-5.6-2.8-8.3-8.4-8.9c-6.5-0.7-12.9-1.6-19.4-2.2c-7.7-0.7-15.4-2-23-1.6
			c-11.4,0.6-22.6,2.6-33.9,3.7c-6.4,0.7-9,3.1-9,9.2c0,20,0,40,0,60.1c0,5.4,0.3,5.6,6.1,5.6C201,288.6,214.6,288.6,228.2,288.6z"
			/>
		<path d="M283.7,220.7c0-1.6,0-3.3,0-4.9c-0.3-18.3-0.4-36.5-0.7-54.9c-0.1-5.6-3.6-9.9-9.2-10.9c-25.6-4.4-51.1-5.9-76.9-2
			c-4.5,0.7-9.1,1.2-13.6,2c-7,1.3-10.1,4.9-10.2,11.8c-0.3,17.9-0.4,35.7-0.6,53.6c0,1.8,0,3.6,0,5.4c-0.4,0-0.8,0.1-1.2,0.1
			c-0.2-0.9-0.4-1.9-0.4-2.8c0-16.4,0-32.6,0.1-49c0-3.5,0.4-7.1,0.7-10.6c0.5-4.8,5-9,10.7-10.1c30.6-5.5,61.3-5.6,91.8,0
			c5.7,1,10.4,5.5,10.5,10.6c0.4,20.3,0.5,40.5,0.7,60.8c0,0.3-0.3,0.7-0.4,1C284.5,220.7,284.1,220.7,283.7,220.7z"/>
		<path d="M216.9,170.9c16.4,0.6,32.9,1.2,49.2,1.8c11.2,0.4,10.4-0.6,10.3,10.6c0,5.8-0.2,11.7,0,17.5c0.1,4.1-1.9,5.6-5.9,5.5
			c-13-0.5-26-1.4-39.1-1.4c-14.6,0-29.3,0.9-43.9,1.3c-7.8,0.3-8.2-0.2-8.2-7.8c0-6.8,0.1-13.6,0-20.4c-0.1-3.5,1.5-4.8,5-4.9
			c10.8-0.3,21.6-0.9,32.4-1.3C216.9,171.4,216.9,171.2,216.9,170.9z M181.2,189.3c0,3.2,0,6.2,0,9.4c0,6,0,6.1,6.5,5.9
			c14.3-0.4,28.8-1.3,43.1-1.3c13.2,0,26.4,0.9,39.5,1.4c3.1,0.2,4.7-0.8,4.6-4c-0.2-7.5-0.1-15.1,0-22.6c0-2.6-1-3.4-3.7-3.6
			c-28.8-1.8-57.8-1.7-86.6,0c-2.8,0.2-3.6,1.4-3.5,3.7C181.3,181.8,181.2,185.5,181.2,189.3z"/>
		<path d="M279,252.3c10.2,0,20.4-0.3,30.5,0.3c2.5,0.2,5.8,2.6,7.2,4.9c5.8,8.9,7,19.1,8.4,29.2c0.1,1-2.2,3.4-3.5,3.4
			c-13.4,0.2-27,0.1-40.4,0c-0.3,0-0.6-0.5-1.7-1.4c2.2,0,3.7,0,5.1,0c11.4,0,22.8-0.1,34.2,0.1c3.6,0,5.4-0.7,4.4-4.6
			c-2.1-7.8-3.8-15.7-6.3-23.3c-1.6-4.9-5.3-7.3-11.2-7.1c-7.4,0.3-14.8,0-22.3-0.1c-1.5,0-3-0.3-4.5-0.3
			C278.9,253,279,252.6,279,252.3z"/>
		<path d="M176,289.6c-1.1,0.2-2.1,0.5-3.2,0.5c-12.1,0-24.3-0.2-36.4-0.1c-4.2,0-5.9-1.5-4.9-5.4c2.2-8.6,4.3-17.3,7.1-25.7
			c1.5-4.7,5.5-6.9,11-6.8c9.3,0.3,18.6,0.1,28,0.9c-1.1,0.2-2.2,0.5-3.3,0.5c-8.2,0.1-16.3,0.3-24.5,0.1c-4.6-0.1-8.3,1.6-9.5,5.5
			c-2.8,8.6-5,17.4-7.2,26.1c-0.8,3.2,1.7,3.3,4.1,3.3c12,0,24,0,36,0c0.9,0,1.8,0.1,2.6,0.2C175.9,289,176,289.3,176,289.6z"/>
		<path d="M288.3,164.5c0-11.8-0.6-23.8,0.3-35.6c0.4-5,4-9.9,6.5-14.7c0.5-1.1,3.1-2.4,3.8-2c1.4,0.8,3,2.6,3.2,4
			c0.2,2.3-0.8,4.6-1.3,7c-1,4.5-2.6,8.9-2.8,13.5c-0.4,7.9-0.1,15.8-0.1,23.9c0,1.4,0,2.6,0,4c-0.4,0.1-0.8,0.1-1.2,0.2
			c-0.2-0.9-0.4-1.9-0.4-2.8c0-9.6-0.1-19.3,0.1-29c0.1-2.5,0.9-4.9,1.6-7.4c0.5-1.8,2-3.3,2.1-5.1c0.2-2-0.4-4.2-0.8-6.3
			c-1.5,1.2-3.6,2.1-4.5,3.7c-3.7,6-5.4,12.4-5.1,19.4c0.4,7.8,0.1,15.6,0.1,23.4c0,1.3-0.2,2.6-0.3,3.9
			C289.1,164.5,288.7,164.5,288.3,164.5z"/>
		<path d="M166.2,164.6c0-1.4,0-2.6,0-4c0-9.4,0.1-18.7-0.1-28.1c-0.2-7.3-3.6-13.5-7.9-19c-0.6,0.1-1.2,0.1-1.9,0.2
			c-0.3,2-1.4,4.5-0.6,6c6.4,10.9,3.5,22.7,4.1,34.2c0.2,3.6,0,7.2,0,10.7c-0.4,0-0.9,0-1.3,0.1c-0.1-1.3-0.3-2.6-0.3-3.8
			c0-7-0.2-13.9,0-20.9c0.2-6.3-0.1-12.4-3.6-18.1c-0.6-1-1.2-2.6-0.9-3.7c0.6-2.1,1.9-4.1,2.9-6.1c1.8,1.2,4.3,2,5.3,3.7
			c3.8,6.1,6.3,12.6,6,20.1c-0.4,9.5-0.1,19.2-0.1,28.8C167.4,164.6,166.8,164.6,166.2,164.6z"/>
		<path d="M275,169.9c-31.3-2.3-62.7-2.3-94,0C212.4,166,243.7,166.1,275,169.9z"/>
		<path d="M146.6,209.1c1.9,1,4.5,2.6,7.3,4.2c-0.2,0.3-0.4,0.8-0.5,1.1c-1.7-0.8-3.4-1.4-5-2.3c-3-1.6-6.1-3.1-9-5
			c-1.2-0.8-2-2.6-2-3.9c-0.3-6.9-0.2-13.9-0.2-20.9c0-2.8,1.5-4.5,4.7-4.3c1.8,0.1,3.7-0.4,5.3,0.2c1.5,0.7,3.6,2.4,3.7,3.7
			c0.4,7.2,0.4,14.5,0,21.6C150.6,205.4,148.1,207.1,146.6,209.1z M138.8,192.8L138.8,192.8c0,3.4,0,6.8,0,10.2c0,3.8,3,3,5.4,3.1
			c2.4,0.1,4.9,0.3,4.9-3.2c-0.1-6.6-0.1-13.3,0-19.9c0.1-3.8-2.5-3.4-5.1-3.4c-2.7,0-5.6-0.6-5.3,3.6
			C139,186.4,138.8,189.6,138.8,192.8z"/>
		<path d="M302.3,213.3c2.8-1.5,5.4-3.1,9.2-5.2c-5.4-0.3-6.5-2.8-6.3-6.6c0.3-6.1,0.2-12.2,0-18.3c-0.1-3.5,1.2-5.1,5.1-5.3
			c8.2-0.3,8.7,0.1,8.7,7.7c0,5.5,0,11.1,0,16.6c0,3.1-1,5.2-4.6,5.5c-1.1,0.1-1.9,1.6-2.9,2.2c-2.8,1.5-5.6,2.9-8.5,4.3
			C302.7,214,302.5,213.6,302.3,213.3z M306.9,192.6c0,3.4,0.1,6.8,0,10.2c-0.1,3,1.8,3.6,4.3,3.3c2.4-0.2,5.9,1.2,6.1-2.9
			c0.2-6.9,0.1-13.9,0-20.8c0-0.9-0.8-2.3-1.6-2.6c-5.1-2.1-8.7,0.2-8.7,5.6C306.8,187.7,306.8,190.2,306.9,192.6z"/>
		<path d="M155.1,220.5c0-15.2,0-30.5,0-46.4c-4.4,0.6-8.1,1-12.5,1.6c3-4.7,8-1.6,10.7-2.6c1.8-2.6,2.7-5.2,4.5-6.1
			c3.6-1.9,8.7-1.1,11.6,0.7c-2.6,0-5.2,0-7.7,0c-3.2,0.1-5,1-4.9,4.8c0.3,14.3,0.2,28.7,0.1,43c0,1.8-0.2,3.5-0.4,5.3
			C156.1,220.7,155.7,220.6,155.1,220.5z"/>
		<path d="M299.1,220.7c0-2.7,0-5.5,0-8.3c0-12.6,0-25.2,0.1-37.8c0.1-6.4-0.4-7-7.2-6.8c-1.8,0-3.5,0.3-5.3-0.2
			c3.7-2,7.9-2,11.7-0.4c1.7,0.7,2.4,3.5,4,6.1c2.6,1.1,7.9-2.5,10.8,2.4c-4.1-0.5-7.9-0.9-12.3-1.4c0,15.9,0,31.1,0,46.3
			C300.2,220.5,299.6,220.6,299.1,220.7z"/>
		<path d="M155.8,284.6c-2.9,0-5.9,0-8.9,0c-3.3,0-4.8-1.4-4.8-4.6c-0.2-7.8,0.1-8.2,8.2-8.2c4.7,0,9.4,0.1,14.2,0
			c4.2-0.1,5.3,2.2,5.2,5.7c-0.2,3.4,0.6,7.2-5,7.1C161.7,284.6,158.8,284.6,155.8,284.6L155.8,284.6z M155.6,283L155.6,283
			c2.9,0,5.9-0.2,8.8,0.1c4,0.3,3.7-2.2,3.7-4.7c0-2.6,0.5-5.3-3.7-5.1c-5.4,0.2-11,0.3-16.4,0c-4.3-0.3-4.4,2-4.4,5
			s0.3,5.3,4.5,4.9C150.5,282.8,153.1,283,155.6,283z"/>
		<path d="M301.9,284.6c-2.9,0-5.9,0.1-8.9,0c-4.8-0.1-4.6-3.5-4.6-6.6s0.4-6.1,4.8-6.1c6.1,0,12.1,0,18.2,0c4.8,0,4.8,3.3,4.9,6.5
			c0.1,3.3-0.3,6.4-5,6.3C308.2,284.6,305,284.6,301.9,284.6z M302.3,273.3c-2.8,0-5.6,0.1-8.5,0c-4.2-0.3-3.9,2.5-3.9,5.1
			c-0.1,2.6,0.1,4.8,3.8,4.7c5.5-0.2,11-0.3,16.5,0c4,0.2,4.6-1.6,4.6-4.9c0-3.2-0.4-5.3-4.5-4.9C307.6,273.5,305,273.3,302.3,273.3
			z"/>
		<path d="M279.8,222.9c7.3,0,14.6-0.1,21.8,0.1c0.9,0,2.5,1.7,2.5,2.7c0.2,8.3,0.1,16.6,0.1,25c-0.4,0-0.8,0.1-1.2,0.1
			c-0.2-1-0.4-2.1-0.4-3.2c-0.1-6.5-0.2-13,0-19.5c0.1-3-1-4.1-4-4.1c-6.3,0.1-12.6,0-18.9,0C279.7,223.7,279.8,223.2,279.8,222.9z"
			/>
		<path d="M176.5,224c-6.2,0-12.5,0.1-18.6,0c-3.2-0.1-4.5,1.1-4.4,4.3c0.2,7.2,0,14.5,0,21.7c0,0.3-0.3,0.5-0.7,1.4
			c-0.4-1.4-0.8-2.1-0.8-2.9c-0.1-7.2-0.2-14.5,0.1-21.7c0-1.4,1.4-3.7,2.3-3.7c7.4-0.3,14.8-0.2,22.2-0.2
			C176.5,223.2,176.5,223.7,176.5,224z"/>
		<path d="M318.6,332.5c0.8,7.7-1.2,10.4-8.4,11.1c-5.2,0.5-10.3,0.6-15.5,0.3c-7-0.3-9.8-4-8.5-11.5c0.4,1.1,0.7,2.1,0.9,3.2
			c1.2,5.5,2.4,6.6,8.3,6.8c4.9,0.2,9.7-0.3,14.6-0.2c4.8,0.1,6.7-2.6,7.5-6.6C317.8,334.5,318.2,333.5,318.6,332.5z"/>
		<path d="M169.9,332.5c1.3,7.6-1.2,11.1-8.5,11.3c-6.1,0.3-12.4-0.2-18.6-0.6c-3.9-0.3-6.3-5-5.7-11.3c0.6,1.3,1.1,2,1.2,2.6
			c2.2,7.3,2.2,7.5,10.1,7.8c4.5,0.3,9.2,0,13.8-0.1c3.7-0.1,5.6-1.9,6.3-5.3C168.8,335.4,169.5,334,169.9,332.5z"/>
		<path d="M245.8,162.8c-1.7-1.5-3.5-4.3-5.2-4.2c-2,0.1-3.8,2.6-6.5,4.6c0.9-2,1.2-4.4,2.5-5c2-0.9,5-1.2,6.9-0.4
			c1.6,0.7,2.1,3.4,3.2,5.3C246.5,163,246.2,162.9,245.8,162.8z"/>
		<path d="M184.6,164.3c0.8-1.8,1.1-4.3,2.5-5.2c1.7-1,4.6-1.3,6.4-0.5c1.8,0.8,2.7,3.2,4.5,5.5c-3.4-2-5.6-4.1-8.1-4.4
			c-1.2-0.2-2.8,3-4.3,4.6C185.2,164.2,184.9,164.3,184.6,164.3z"/>
		<path d="M221.4,162.5c-2.3-1.5-4.2-3.7-6.3-3.8c-1.5-0.1-3.1,2.6-5.1,4.5c0.3-1.3,0.1-3.7,1.1-4.2c2-1.1,4.9-2,7.1-1.6
			C220.7,158,222.2,160.4,221.4,162.5z"/>
		<path d="M258.7,163.4c1.2-1.7,2.1-4.1,3.8-4.8c1.8-0.8,4.7-0.5,6.3,0.5c1.4,0.9,1.7,3.4,2.9,6.2c-2.9-2.7-4.5-5.5-6.5-5.8
			c-1.7-0.3-3.8,2.4-5.7,3.7C259.4,163.3,259.1,163.4,258.7,163.4z"/>
		<path d="M227.9,316.8c-6.7,0-13.4-0.1-19.9,0c-3.2,0.1-4.5-1.3-4.5-4.3c-0.4-10-0.5-10,9.8-10c11.4,0,22.8,0.1,34.2-0.1
			c4-0.1,5.5,1.4,5.5,5.2c0,9.1,0.2,9.1-9.4,9.1C238.2,316.8,233,316.8,227.9,316.8z M228,315.2c5.2,0,10.3,0,15.5,0
			c8.1-0.1,7.1,1.2,7.5-7c0.1-3.5-1.2-4.3-4.6-4.3c-11.2,0.2-22.5,0-33.7,0.1c-8.4,0.1-7.4-1.4-7.7,7.6c-0.1,2.9,1.1,3.7,3.9,3.6
			C215.3,315.2,221.7,315.2,228,315.2z"/>
		<path d="M228,285.3c-12.3,0-24.6,0-36.9,0c-5.3,0-6.1-0.9-6.1-6c0-18.8,0-37.7,0-56.6c0-4.6,1.3-5.8,6.2-6.3
			c11.6-1.3,23.1-3,34.8-3.7c5.8-0.4,11.8,0.8,17.6,1.4c7.2,0.8,14.4,1.7,21.6,2.4c3.9,0.3,5.9,2,5.9,5.9c-0.1,19.3-0.1,38.6,0,57.8
			c0,3.9-1.9,5.2-5.8,5.2C253,285.3,240.5,285.3,228,285.3z M227.9,283.8c12.2,0,24.3-0.1,36.5,0.1c3.5,0.1,5.1-0.8,5.1-4.4
			c-0.2-18.7-0.1-37.5,0-56.2c0-3.7-1.7-4.9-5.3-5.2c-6.8-0.6-13.5-1.6-20.3-2.2c-6.3-0.6-12.6-1.5-19-1.1
			c-11,0.7-22.1,2.4-33.1,3.4c-3.9,0.3-5.4,1.7-5.4,5.5c0.1,18.6,0.1,37.2,0,55.8c0,3.6,1.2,4.7,5,4.6
			C203.6,283.7,215.8,283.8,227.9,283.8z"/>
		<ellipse cx="228.1" cy="188" rx="0.7" ry="18.5"/>
		<path class="st0" d="M222.9,218.6c0,21,0,41.1,0,61.5C225.3,277.6,225.5,222.5,222.9,218.6z M233.3,219.4
			c-2.7,3.6-2.3,58.1,0,61.1C233.3,259.7,233.3,239.6,233.3,219.4z M205.8,221.5c-0.4-0.1-0.7-0.1-1.2-0.2c-0.3,0.9-0.8,1.8-0.8,2.6
			c-0.1,17.7-0.1,35.4,0,53.2c0,0.9,0.7,2,1.1,2.9c0.3-0.1,0.5-0.2,0.9-0.3C205.8,260.3,205.8,240.9,205.8,221.5z M250.3,280.4
			c2.7-3.5,2.7-56.1,0-59.5C250.3,240.9,250.3,260.3,250.3,280.4z M195.3,279.9c2.7-4.3,2.2-55.4,0-57.9
			C195.3,241.6,195.3,260.7,195.3,279.9z M260.8,222.5c-0.4,0-0.8,0-1.2,0c0,19.2,0,38.3,0,57.5c0.4,0,0.8,0,1.2,0
			C260.8,260.7,260.8,241.6,260.8,222.5z M214.9,220.4c-0.4,0-0.6,0-1,0c0,19.8,0,39.6,0,59.5c0.4,0,0.6,0,1,0
			C214.9,260,214.9,240.3,214.9,220.4z M242.4,220.4c-0.3,0-0.6,0-0.9,0c0,19.8,0,39.6,0,59.5c0.3,0,0.6,0,0.9,0
			C242.4,260,242.4,240.2,242.4,220.4z"/>
		<path d="M222.9,218.6c2.7,3.8,2.4,58.9,0,61.5C222.9,259.7,222.9,239.5,222.9,218.6z"/>
		<path d="M233.3,219.4c0,20.2,0,40.3,0,61.1C231,277.5,230.6,223,233.3,219.4z"/>
		<path d="M205.8,221.5c0,19.4,0,38.8,0,58.4c-0.3,0.1-0.5,0.2-0.9,0.3c-0.4-0.9-1.1-2-1.1-2.9c-0.1-17.7-0.1-35.4,0-53.2
			c0-0.9,0.5-1.8,0.8-2.6C205.1,221.4,205.4,221.4,205.8,221.5z"/>
		<path d="M250.3,280.4c0-20.1,0-39.5,0-59.5C253,224.4,253,276.9,250.3,280.4z"/>
		<path d="M195.3,279.9c0-19.2,0-38.3,0-57.9C197.5,224.5,197.9,275.5,195.3,279.9z"/>
		<path d="M260.8,222.5c0,19.2,0,38.2,0,57.4c-0.4,0-0.8,0-1.2,0c0-19.2,0-38.3,0-57.5C260,222.4,260.4,222.4,260.8,222.5z"/>
		<path d="M214.9,220.4c0,19.8,0,39.6,0,59.4c-0.4,0-0.6,0-1,0c0-19.8,0-39.6,0-59.5C214.2,220.4,214.6,220.4,214.9,220.4z"/>
		<path d="M242.4,220.4c0,19.8,0,39.6,0,59.5c-0.3,0-0.6,0-0.9,0c0-19.8,0-39.6,0-59.5C241.7,220.4,242.1,220.4,242.4,220.4z"/>
	</g>
</g>
</svg>
