<?xml version="1.0" encoding="utf-8"?>
<!-- Generator: Adobe Illustrator 24.2.1, SVG Export Plug-In . SVG Version: 6.00 Build 0)  -->
<svg version="1.1" id="Layer_1" xmlns="http://www.w3.org/2000/svg" xmlns:xlink="http://www.w3.org/1999/xlink" x="0px" y="0px"
	 viewBox="0 0 456 456" style="enable-background:new 0 0 456 456;" xml:space="preserve">
<style type="text/css">
	.st0{fill:#FFFFFF;}
</style>
<path class="st0" d="M177.5,321.8c-8.9,0-16.4-3.4-22.6-10.2s-9.3-15.1-9.3-24.8H119l4.8-23.3h30c3-3.7,6.6-6.6,10.6-8.6
	s8.4-3.1,13-3.1c4.6,0,8.9,1,13,3.1s7.6,4.9,10.6,8.6h44.4l22.3-104.9H151.4l1.1-5c1.1-5.4,3.5-9.9,7.3-13.3s8.3-5.1,13.4-5.1h121.2
	l-9.8,46.6h31.1l31.9,46.6L337,286.8h-21.3c0,9.7-3.1,18-9.3,24.8c-6.2,6.8-13.7,10.2-22.6,10.2c-8.9,0-16.4-3.4-22.6-10.2
	c-6.2-6.8-9.3-15.1-9.3-24.8h-42.5c0,9.7-3.1,18-9.3,24.8C193.9,318.4,186.4,321.8,177.5,321.8z M272.4,240.2h51.3l1.1-6.1
	l-19.7-28.8h-25.3L272.4,240.2z M267.3,160.6l0.5-2l-22.3,104.9l0.5-2l9-42.5L267.3,160.6z M108.4,243.9l5.3-23.3h58.5l-5.3,23.3
	H108.4z M129.6,201.4l5.3-23.3h69.1l-5.3,23.3H129.6z M177.5,298.4c3,0,5.5-1.1,7.6-3.4c2-2.2,3.1-5,3.1-8.3s-1-6.1-3.1-8.3
	c-2-2.2-4.6-3.4-7.6-3.4c-3,0-5.5,1.1-7.6,3.4c-2,2.2-3.1,5-3.1,8.3s1,6.1,3.1,8.3C172,297.3,174.5,298.4,177.5,298.4z M283.8,298.4
	c3,0,5.5-1.1,7.6-3.4c2-2.2,3.1-5,3.1-8.3s-1-6.1-3.1-8.3c-2-2.2-4.6-3.4-7.6-3.4c-3,0-5.5,1.1-7.6,3.4c-2,2.2-3.1,5-3.1,8.3
	s1,6.1,3.1,8.3C278.3,297.3,280.8,298.4,283.8,298.4z"/>
</svg>
