<?xml version="1.0" encoding="utf-8"?>
<!-- Generator: Adobe Illustrator 24.2.1, SVG Export Plug-In . SVG Version: 6.00 Build 0)  -->
<svg version="1.1" id="Layer_1" xmlns="http://www.w3.org/2000/svg" xmlns:xlink="http://www.w3.org/1999/xlink" x="0px" y="0px"
	 viewBox="0 0 456 456" style="enable-background:new 0 0 456 456;" xml:space="preserve">
<style type="text/css">
	.st0{fill:#FFFFFF;}
</style>
<g id="Layer_2_1_">
	<g>
		<path class="st0" d="M290,209.1c0.4,0,0.9,0.1,1.3,0.1c0.2-0.4,0.5-0.8,0.5-1.2c-0.2-23.8-0.4-47.6-0.8-71.4
			c-0.1-6-5.4-11.2-11.8-12.4c-34.4-6.6-68.8-6.5-103.1,0c-6.4,1.2-11.4,6.2-12,11.8c-0.4,4.1-0.8,8.3-0.8,12.4
			c-0.1,19.2-0.1,38.3-0.1,57.5c0,1.1,0.3,2.2,0.5,3.3c0.5,0,0.9-0.1,1.4-0.1c0-2.1,0-4.2,0-6.3c0.2-21,0.5-41.9,0.7-62.9
			c0.1-8,3.6-12.3,11.5-13.9c5-1,10.2-1.6,15.3-2.3c28.9-4.5,57.7-2.8,86.4,2.4c6.3,1.2,10.2,6.1,10.3,12.8
			c0.3,21.5,0.5,42.9,0.8,64.4C290.1,205.2,290,207.1,290,209.1z M284.7,246.2c0,0.4-0.1,0.8-0.1,1.2c1.7,0.1,3.4,0.4,5.1,0.4
			c8.3,0.1,16.7,0.5,25,0.1c6.6-0.3,10.8,2.5,12.6,8.3c2.8,9,4.6,18.3,7.1,27.4c1.2,4.5-0.9,5.4-4.9,5.4
			c-12.8-0.1-25.6-0.1-38.4-0.1c-1.6,0-3.1,0-5.7,0c1.2,1.1,1.6,1.6,1.9,1.6c15.1,0.1,30.3,0.3,45.4,0c1.4,0,4.1-2.8,3.9-4
			c-1.4-11.9-2.9-23.9-9.4-34.3c-1.6-2.6-5.2-5.5-8.1-5.7C307.7,245.8,296.2,246.2,284.7,246.2z M169,290c-0.1-0.4-0.1-0.7-0.2-1.1
			c-1-0.1-2-0.2-2.9-0.2c-13.5,0-27,0-40.4,0c-2.7,0-5.5-0.1-4.6-3.9c2.5-10.3,4.9-20.6,8.1-30.6c1.4-4.6,5.5-6.6,10.7-6.4
			c9.1,0.3,18.3,0,27.5-0.1c1.2,0,2.5-0.4,3.7-0.6c-10.6-1-21.1-0.8-31.5-1.1c-6.2-0.2-10.7,2.5-12.4,8c-3.1,9.9-5.5,20.1-8,30.2
			c-1.1,4.5,0.8,6.4,5.5,6.3c13.6-0.1,27.3,0.1,40.9,0.1C166.6,290.7,167.8,290.3,169,290z M295.2,143.1c0.5,0,0.9,0.1,1.4,0.1
			c0.1-1.5,0.3-3.1,0.3-4.6c0-9.2,0.3-18.3-0.1-27.5c-0.4-8.3,1.5-15.9,5.7-22.8c1.1-1.8,3.3-2.9,5-4.3c0.3,2.5,1.1,5,0.9,7.4
			c-0.2,2-1.8,3.9-2.4,6c-0.8,2.8-1.8,5.8-1.8,8.7c-0.2,11.3-0.1,22.6-0.1,34c0,1.1,0.3,2.2,0.5,3.3c0.4-0.1,0.9-0.1,1.3-0.2
			c0-1.6,0-3.1,0-4.7c0-9.3-0.4-18.7,0.1-28c0.3-5.3,2.1-10.6,3.2-15.9c0.6-2.7,1.7-5.5,1.5-8.2c-0.1-1.7-1.9-3.8-3.6-4.7
			c-0.8-0.4-3.6,1.1-4.3,2.4c-2.8,5.6-6.9,11.3-7.3,17.2C294.5,115.1,295.2,129.1,295.2,143.1z M158.1,143.2c0.6,0,1.2,0,1.8,0
			c0-11.3-0.4-22.5,0.1-33.8c0.4-8.8-2.5-16.4-6.7-23.6c-1.1-1.9-3.9-2.9-5.9-4.3c-1.1,2.4-2.5,4.7-3.3,7.2c-0.4,1.2,0.3,3,1,4.3
			c3.9,6.6,4.2,13.8,4,21.3c-0.2,8.2-0.1,16.3,0,24.5c0,1.5,0.2,3,0.3,4.5c0.5,0,1,0,1.5-0.1c0-4.2,0.2-8.4,0-12.6
			c-0.7-13.5,2.6-27.3-4.6-40.2c-0.9-1.7,0.4-4.6,0.7-7c0.7-0.1,1.4-0.1,2.1-0.2c4.9,6.6,8.8,13.7,8.9,22.3c0.2,11,0.1,22,0.1,33
			C158.1,140.1,158.1,141.7,158.1,143.2z M280.3,149.5c-35.2-4.5-70.4-4.6-105.6,0C209.8,146.8,245,146.9,280.3,149.5z M145.6,208.9
			c0.6,0.1,1.2,0.2,1.7,0.3c0.1-2.1,0.4-4.1,0.4-6.2c0-16.8,0.2-33.7-0.1-50.5c-0.1-4.4,1.9-5.5,5.5-5.6c2.9-0.1,5.7,0,8.7,0
			c-3.2-2.1-9-3-13-0.8c-2.1,1.1-3.1,4.3-5.1,7.2c-3,1.1-8.7-2.5-12,3c4.9-0.7,9.1-1.2,14-1.9C145.6,173.1,145.6,191,145.6,208.9z
			 M307.3,209.1c0.7-0.1,1.3-0.1,2-0.2c0-17.9,0-35.7,0-54.4c4.9,0.6,9.2,1.2,13.8,1.7c-3.1-5.7-9.2-1.5-12.1-2.8
			c-1.8-3.1-2.6-6.4-4.5-7.2c-4.2-1.9-8.9-1.8-13.1,0.5c2,0.4,4,0.2,5.9,0.2c7.6-0.2,8.2,0.5,8.1,8c-0.1,14.8-0.1,29.6-0.1,44.4
			C307.3,202.6,307.3,205.8,307.3,209.1z M285.6,211.7c0,0.4-0.1,0.9-0.1,1.3c7.1,0,14.1,0.1,21.2,0c3.4,0,4.6,1.3,4.5,4.8
			c-0.2,7.6-0.1,15.3,0,22.9c0,1.3,0.3,2.5,0.5,3.7c0.5,0,0.9-0.1,1.4-0.1c0-9.8,0.1-19.6-0.1-29.3c0-1.1-1.8-3.1-2.8-3.2
			C302,211.6,293.8,211.7,285.6,211.7z M169.6,213c0-0.4,0-0.9,0-1.3c-8.3,0-16.6-0.1-24.9,0.2c-1,0-2.5,2.8-2.6,4.4
			c-0.3,8.5-0.1,17-0.1,25.5c0,0.9,0.5,1.8,0.9,3.4c0.5-1.1,0.8-1.4,0.8-1.7c0.1-8.5,0.3-17,0-25.5c-0.1-3.8,1.3-5.1,4.9-5
			C155.6,213.1,162.6,213,169.6,213z M329.2,340.3c-0.4,1.2-0.9,2.4-1.1,3.6c-0.9,4.7-3,7.9-8.4,7.8c-5.5-0.1-11,0.4-16.4,0.2
			c-6.6-0.2-7.9-1.5-9.3-8c-0.3-1.3-0.7-2.5-1-3.8c-1.5,8.8,1.6,13.1,9.5,13.5c5.8,0.3,11.6,0.2,17.4-0.4
			C327.8,352.5,330.1,349.3,329.2,340.3z M162.2,340.3c-0.5,1.8-1.2,3.5-1.5,5.4c-0.8,4-3,6.1-7.1,6.2c-5.2,0.1-10.3,0.4-15.5,0.1
			c-8.9-0.5-8.9-0.6-11.4-9.2c-0.2-0.8-0.7-1.6-1.4-3.1c-0.7,7.4,2,13,6.4,13.3c6.9,0.6,13.9,1.1,20.9,0.7
			C160.8,353.2,163.6,349.1,162.2,340.3z M247.5,141.2c0.3,0.1,0.7,0.2,1,0.3c-1.1-2.2-1.8-5.4-3.6-6.2c-2.1-1-5.5-0.6-7.7,0.5
			c-1.4,0.7-1.8,3.6-2.8,5.9c3-2.3,5.1-5.3,7.3-5.4C243.6,136.2,245.6,139.4,247.5,141.2z M178.7,142.9c0.3,0,0.7-0.1,1-0.1
			c1.6-1.9,3.5-5.6,4.8-5.4c2.8,0.4,5.3,2.8,9.1,5.2c-1.9-2.6-3-5.5-5-6.4s-5.3-0.6-7.2,0.6C179.9,137.8,179.6,140.8,178.7,142.9z
			 M220,140.8c0.9-2.5-0.7-5.3-3.6-6c-2.4-0.5-5.6,0.6-8,1.9c-1.1,0.6-0.9,3.5-1.2,4.9c2.2-2.2,4-5.4,5.7-5.3
			C215.2,136.4,217.4,139,220,140.8z M262,141.8c0.4-0.1,0.7-0.1,1.1-0.2c2.2-1.6,4.6-4.6,6.4-4.3c2.2,0.3,4,3.6,7.3,6.8
			c-1.4-3.3-1.7-6.3-3.3-7.3c-1.8-1.2-5.2-1.5-7.1-0.6C264.5,137,263.4,139.9,262,141.8z"/>
		<path d="M227.7,292.9c34,0,67.9,0,101.9,0c2.2,0,4.3,0,6.5,0.2c3.1,0.3,4.8,2,4.8,5.2c0,10.5,0.1,21-0.1,31.5
			c-0.1,5.8-4.2,9.1-10.9,9.1c-12.7,0.1-25.3,0-38,0c-55.4,0-110.9,0-166.3,0c-8.1,0-11.6-3.3-11.6-11.4c0-8.5,0-17,0-25.5
			c0-8.4,0.6-9,9.2-9c34.8,0,69.6,0,104.4,0C227.7,293,227.7,292.9,227.7,292.9z M227.7,294.9c-35.3,0-70.6,0.1-105.9-0.1
			c-4.3,0-6,1.3-5.9,5.7c0.2,9.2,0,18.3,0.1,27.5c0,6.2,2.7,9,8.7,9c68.4,0,136.9,0,205.3,0c6.5,0,9-2.7,9.1-9.2
			c0.1-8.8,0-17.6,0-26.5c0-6.2-0.3-6.5-6.5-6.5C297.6,294.9,262.6,294.9,227.7,294.9z"/>
		<path d="M227,290.5c-15.5,0-31,0-46.5,0c-6.7,0-7.5-0.9-7.5-7.5c0-23.8,0-47.6,0-71.4c0-8.1,3.5-11.6,11.6-12.5
			c12.7-1.4,25.4-3.7,38.1-4.4c8.7-0.5,17.5,0.9,26.3,1.7c7.3,0.7,14.5,1.9,21.8,2.7c7.4,0.8,11.1,4.6,11.1,12c0,24.1,0,48.3,0,72.4
			c0,5.9-0.8,6.9-7,7C259,290.6,243,290.5,227,290.5L227,290.5z M227.7,288.8c15.7,0,31.3-0.1,47,0c4,0,5.6-1.4,5.5-5.5
			c-0.2-24-0.1-48-0.1-72c0-6.6-3.1-9.8-9.4-10.4c-7.3-0.8-14.5-1.9-21.8-2.6c-8.6-0.8-17.3-2.3-25.8-1.9c-12.8,0.7-25.4,3-38.1,4.4
			c-7.2,0.8-10.1,3.6-10.1,10.8c0,23.5,0,47,0,70.5c0,6.3,0.3,6.6,6.9,6.6C197.1,288.8,212.4,288.8,227.7,288.8z"/>
		<path d="M290,209.1c0-1.9,0-3.9,0-5.8c-0.3-21.5-0.5-42.9-0.8-64.4c-0.1-6.6-4-11.6-10.3-12.8c-28.7-5.2-57.4-6.9-86.4-2.4
			c-5.1,0.8-10.2,1.4-15.3,2.3c-7.9,1.5-11.4,5.8-11.5,13.9c-0.3,21-0.5,41.9-0.7,62.9c0,2.1,0,4.2,0,6.3c-0.5,0-0.9,0.1-1.4,0.1
			c-0.2-1.1-0.5-2.2-0.5-3.3c0-19.2,0-38.3,0.1-57.5c0-4.1,0.4-8.3,0.8-12.4c0.6-5.6,5.6-10.6,12-11.8c34.4-6.5,68.8-6.6,103.1,0
			c6.4,1.2,11.7,6.4,11.8,12.4c0.4,23.8,0.6,47.6,0.8,71.4c0,0.4-0.3,0.8-0.5,1.2C290.9,209.1,290.5,209.1,290,209.1z"/>
		<path d="M215,150.7c18.4,0.7,36.9,1.4,55.3,2.1c12.6,0.5,11.7-0.7,11.6,12.4c0,6.8-0.2,13.7,0,20.5c0.1,4.8-2.1,6.6-6.6,6.4
			c-14.6-0.6-29.2-1.6-43.9-1.6c-16.4,0-32.9,1-49.3,1.5c-8.8,0.3-9.2-0.2-9.2-9.2c0-8,0.1-16,0-24c-0.1-4.1,1.7-5.6,5.6-5.8
			c12.1-0.4,24.3-1,36.4-1.5C215,151.2,215,151,215,150.7z M174.9,172.2c0,3.7,0,7.3,0,11c0,7.1,0,7.2,7.3,6.9
			c16.1-0.5,32.3-1.5,48.4-1.5c14.8,0,29.6,1,44.4,1.6c3.5,0.2,5.3-0.9,5.2-4.7c-0.2-8.8-0.1-17.7,0-26.5c0-3-1.1-4-4.1-4.2
			c-32.4-2.1-64.9-2-97.3,0c-3.1,0.2-4,1.6-3.9,4.4C175,163.5,174.9,167.8,174.9,172.2z"/>
		<path d="M284.7,246.2c11.5,0,22.9-0.4,34.3,0.3c2.8,0.2,6.5,3,8.1,5.7c6.5,10.4,7.9,22.4,9.4,34.3c0.1,1.2-2.5,4-3.9,4
			c-15.1,0.2-30.3,0.1-45.4,0c-0.3,0-0.7-0.6-1.9-1.6c2.5,0,4.1,0,5.7,0c12.8,0,25.6-0.1,38.4,0.1c4,0,6.1-0.8,4.9-5.4
			c-2.4-9.1-4.3-18.4-7.1-27.4c-1.8-5.8-6-8.6-12.6-8.3c-8.3,0.4-16.6,0-25-0.1c-1.7,0-3.4-0.3-5.1-0.4
			C284.6,247,284.7,246.6,284.7,246.2z"/>
		<path d="M169,290c-1.2,0.2-2.4,0.6-3.6,0.6c-13.6,0-27.3-0.2-40.9-0.1c-4.7,0-6.6-1.8-5.5-6.3c2.5-10.1,4.8-20.3,8-30.2
			c1.7-5.5,6.2-8.1,12.4-8c10.4,0.3,20.9,0.1,31.5,1.1c-1.2,0.2-2.5,0.6-3.7,0.6c-9.2,0.1-18.3,0.4-27.5,0.1
			c-5.2-0.1-9.3,1.9-10.7,6.4c-3.2,10.1-5.6,20.4-8.1,30.6c-0.9,3.8,1.9,3.9,4.6,3.9c13.5,0,27,0,40.4,0c1,0,2,0.1,2.9,0.2
			C168.9,289.3,169,289.7,169,290z"/>
		<path d="M295.2,143.1c0-13.9-0.7-27.9,0.3-41.8c0.5-5.9,4.5-11.6,7.3-17.2c0.6-1.3,3.5-2.8,4.3-2.4c1.6,0.9,3.4,3,3.6,4.7
			c0.2,2.7-0.9,5.4-1.5,8.2c-1.1,5.3-2.9,10.5-3.2,15.9c-0.5,9.3-0.1,18.6-0.1,28c0,1.6,0,3.1,0,4.7c-0.4,0.1-0.9,0.1-1.3,0.2
			c-0.2-1.1-0.5-2.2-0.5-3.3c0-11.3-0.1-22.6,0.1-34c0.1-2.9,1-5.8,1.8-8.7c0.6-2.1,2.2-3.9,2.4-6c0.2-2.4-0.5-4.9-0.9-7.4
			c-1.7,1.4-4,2.5-5,4.3c-4.2,7-6.1,14.6-5.7,22.8c0.4,9.1,0.1,18.3,0.1,27.5c0,1.5-0.2,3.1-0.3,4.6
			C296.1,143.1,295.7,143.1,295.2,143.1z"/>
		<path d="M158.1,143.2c0-1.6,0-3.1,0-4.7c0-11,0.1-22-0.1-33c-0.2-8.6-4-15.8-8.9-22.3c-0.7,0.1-1.4,0.1-2.1,0.2
			c-0.3,2.4-1.6,5.3-0.7,7c7.2,12.8,3.9,26.7,4.6,40.2c0.2,4.2,0,8.4,0,12.6c-0.5,0-1,0-1.5,0.1c-0.1-1.5-0.3-3-0.3-4.5
			c0-8.2-0.2-16.3,0-24.5c0.2-7.4-0.1-14.6-4-21.3c-0.7-1.2-1.3-3-1-4.3c0.7-2.5,2.1-4.8,3.3-7.2c2,1.4,4.8,2.4,5.9,4.3
			c4.3,7.2,7.1,14.8,6.7,23.6c-0.5,11.2-0.1,22.5-0.1,33.8C159.4,143.2,158.7,143.2,158.1,143.2z"/>
		<path d="M280.3,149.5c-35.2-2.7-70.4-2.7-105.6,0C209.9,144.9,245.1,145,280.3,149.5z"/>
		<path d="M136,195.5c2.1,1.2,5.1,3.1,8.2,4.9c-0.2,0.4-0.4,0.9-0.6,1.3c-1.9-0.9-3.8-1.7-5.6-2.7c-3.4-1.9-6.9-3.6-10.1-5.9
			c-1.3-0.9-2.3-3-2.3-4.6c-0.3-8.1-0.2-16.3-0.2-24.5c0-3.3,1.7-5.3,5.3-5.1c2,0.1,4.2-0.5,5.9,0.2c1.7,0.8,4,2.8,4.1,4.3
			c0.4,8.5,0.5,17,0,25.4C140.5,191.1,137.7,193.1,136,195.5z M127.3,176.4L127.3,176.4c0,4,0,8,0,12c0,4.5,3.4,3.5,6.1,3.6
			c2.7,0.1,5.5,0.3,5.5-3.8c-0.1-7.8-0.1-15.6,0-23.4c0.1-4.5-2.8-4-5.7-4c-3,0-6.3-0.7-6,4.2C127.5,168.8,127.3,172.6,127.3,176.4z
			"/>
		<path d="M310.9,200.4c3.1-1.8,6.1-3.6,10.3-6.1c-6.1-0.4-7.3-3.3-7.1-7.8c0.3-7.2,0.2-14.3,0-21.5c-0.1-4.1,1.3-6,5.7-6.2
			c9.2-0.3,9.8,0.1,9.8,9c0,6.5,0,13,0,19.5c0,3.6-1.1,6.1-5.2,6.5c-1.2,0.1-2.1,1.9-3.3,2.6c-3.1,1.8-6.3,3.4-9.5,5.1
			C311.4,201.2,311.1,200.8,310.9,200.4z M316.1,176.1c0,4,0.1,8,0,12c-0.1,3.5,2,4.2,4.8,3.9c2.7-0.2,6.6,1.4,6.8-3.4
			c0.2-8.1,0.1-16.3,0-24.4c0-1.1-0.9-2.7-1.8-3.1c-5.7-2.5-9.8,0.2-9.8,6.6C316,170.4,316,173.3,316.1,176.1z"/>
		<path d="M145.6,208.9c0-17.9,0-35.8,0-54.5c-4.9,0.7-9.1,1.2-14,1.9c3.4-5.5,9-1.9,12-3c2-3,3-6.1,5.1-7.2c4-2.2,9.8-1.3,13,0.8
			c-2.9,0-5.8,0-8.7,0c-3.6,0.1-5.6,1.2-5.5,5.6c0.3,16.8,0.2,33.7,0.1,50.5c0,2.1-0.2,4.1-0.4,6.2
			C146.7,209.1,146.2,209,145.6,208.9z"/>
		<path d="M307.3,209.1c0-3.2,0-6.5,0-9.7c0-14.8,0-29.6,0.1-44.4c0.1-7.5-0.5-8.2-8.1-8c-2,0-3.9,0.3-5.9-0.2
			c4.2-2.3,8.9-2.4,13.1-0.5c1.9,0.8,2.7,4.1,4.5,7.2c2.9,1.3,8.9-2.9,12.1,2.8c-4.6-0.6-8.9-1.1-13.8-1.7c0,18.7,0,36.5,0,54.4
			C308.6,208.9,307.9,209,307.3,209.1z"/>
		<path d="M146.4,284.1c-3.3,0-6.6,0-10,0c-3.7,0-5.4-1.6-5.4-5.4c-0.2-9.2,0.1-9.6,9.2-9.6c5.3,0,10.6,0.1,16,0
			c4.7-0.1,5.9,2.6,5.8,6.7c-0.2,4,0.7,8.5-5.6,8.3C153,284.1,149.7,284.1,146.4,284.1L146.4,284.1z M146.1,282.3L146.1,282.3
			c3.3,0,6.6-0.2,9.9,0.1c4.5,0.3,4.2-2.6,4.1-5.5c0-3,0.6-6.2-4.2-6c-6.1,0.2-12.3,0.3-18.4,0c-4.8-0.3-4.9,2.3-4.9,5.9
			s0.3,6.2,5,5.7C140.4,282,143.3,282.3,146.1,282.3z"/>
		<path d="M310.5,284.1c-3.3,0-6.6,0.1-10,0c-5.4-0.1-5.2-4.1-5.2-7.8c0-3.7,0.4-7.2,5.4-7.2c6.8,0,13.6,0,20.4,0
			c5.4,0,5.4,3.9,5.5,7.6c0.1,3.9-0.3,7.5-5.6,7.4C317.5,284.1,314,284.1,310.5,284.1z M310.9,270.9c-3.2,0-6.3,0.1-9.5,0
			c-4.7-0.3-4.4,2.9-4.4,6c-0.1,3.1,0.1,5.6,4.3,5.5c6.2-0.2,12.3-0.3,18.5,0c4.5,0.2,5.2-1.9,5.2-5.7c0-3.7-0.5-6.2-5.1-5.8
			C316.9,271.1,313.9,270.9,310.9,270.9z"/>
		<path d="M285.6,211.7c8.2,0,16.4-0.1,24.5,0.1c1,0,2.8,2,2.8,3.2c0.2,9.8,0.1,19.5,0.1,29.3c-0.5,0-0.9,0.1-1.4,0.1
			c-0.2-1.2-0.5-2.5-0.5-3.7c-0.1-7.6-0.2-15.3,0-22.9c0.1-3.5-1.1-4.8-4.5-4.8c-7.1,0.1-14.1,0-21.2,0
			C285.5,212.6,285.6,212.1,285.6,211.7z"/>
		<path d="M169.6,213c-7,0-14,0.1-20.9,0c-3.6-0.1-5,1.3-4.9,5c0.2,8.5,0,17,0,25.5c0,0.3-0.3,0.6-0.8,1.7c-0.4-1.6-0.9-2.5-0.9-3.4
			c-0.1-8.5-0.2-17,0.1-25.5c0-1.6,1.6-4.3,2.6-4.4c8.3-0.3,16.6-0.2,24.9-0.2C169.6,212.1,169.6,212.6,169.6,213z"/>
		<path d="M329.2,340.3c0.9,9-1.3,12.2-9.4,13c-5.8,0.6-11.6,0.7-17.4,0.4c-7.9-0.4-11-4.7-9.5-13.5c0.4,1.3,0.8,2.5,1,3.8
			c1.4,6.4,2.7,7.7,9.3,8c5.5,0.2,10.9-0.3,16.4-0.2c5.4,0.1,7.5-3.1,8.4-7.8C328.3,342.7,328.8,341.5,329.2,340.3z"/>
		<path d="M162.2,340.3c1.5,8.9-1.4,13-9.6,13.3c-6.9,0.3-13.9-0.2-20.9-0.7c-4.4-0.4-7.1-5.9-6.4-13.3c0.7,1.5,1.2,2.3,1.4,3.1
			c2.5,8.6,2.5,8.8,11.4,9.2c5.1,0.3,10.3,0,15.5-0.1c4.1-0.1,6.3-2.2,7.1-6.2C161,343.8,161.7,342.1,162.2,340.3z"/>
		<path d="M247.5,141.2c-1.9-1.8-3.9-5-5.8-4.9c-2.2,0.1-4.3,3-7.3,5.4c1-2.3,1.4-5.2,2.8-5.9c2.2-1.1,5.6-1.4,7.7-0.5
			c1.8,0.8,2.4,4,3.6,6.2C248.2,141.4,247.9,141.3,247.5,141.2z"/>
		<path d="M178.7,142.9c0.9-2.1,1.2-5.1,2.8-6.1c1.9-1.2,5.2-1.5,7.2-0.6s3,3.7,5,6.4c-3.8-2.4-6.3-4.8-9.1-5.2
			c-1.3-0.2-3.2,3.5-4.8,5.4C179.4,142.8,179,142.9,178.7,142.9z"/>
		<path d="M220,140.8c-2.6-1.8-4.7-4.4-7.1-4.5c-1.7-0.1-3.5,3.1-5.7,5.3c0.3-1.5,0.1-4.3,1.2-4.9c2.3-1.3,5.5-2.4,8-1.9
			C219.3,135.5,220.9,138.3,220,140.8z"/>
		<path d="M262,141.8c1.4-2,2.4-4.8,4.3-5.6c2-0.9,5.3-0.6,7.1,0.6c1.6,1,1.9,4,3.3,7.3c-3.3-3.2-5-6.4-7.3-6.8
			c-1.9-0.3-4.3,2.8-6.4,4.3C262.7,141.7,262.4,141.8,262,141.8z"/>
		<path d="M227.3,321.9c-7.5,0-15-0.1-22.4,0c-3.6,0.1-5-1.5-5.1-5.1c-0.5-11.7-0.6-11.7,11-11.7c12.8,0,25.6,0.1,38.4-0.1
			c4.5-0.1,6.2,1.6,6.2,6.1c0,10.7,0.2,10.7-10.6,10.7C238.9,321.9,233.1,321.9,227.3,321.9z M227.5,320.1c5.8,0,11.6,0,17.4,0
			c9.1-0.1,8,1.4,8.4-8.2c0.1-4.1-1.3-5.1-5.2-5c-12.6,0.2-25.3,0-37.9,0.1c-9.4,0.1-8.3-1.7-8.6,8.9c-0.1,3.4,1.2,4.3,4.4,4.2
			C213.2,320,220.4,320.1,227.5,320.1z"/>
		<path d="M227.5,285c-13.8,0-27.6,0-41.5,0c-6,0-6.9-1-6.9-7c0-22.1,0-44.3,0-66.4c0-5.4,1.5-6.8,7-7.4c13-1.5,26-3.5,39.1-4.4
			c6.5-0.5,13.2,0.9,19.8,1.6c8.1,0.9,16.2,2,24.3,2.8c4.4,0.4,6.6,2.3,6.6,6.9c-0.1,22.6-0.1,45.3,0,67.9c0,4.6-2.1,6.1-6.5,6.1
			C255.5,284.9,241.5,285,227.5,285z M227.4,283.2c13.7,0,27.3-0.1,41,0.1c3.9,0.1,5.7-0.9,5.7-5.2c-0.2-22-0.1-44,0-66
			c0-4.3-1.9-5.8-5.9-6.1c-7.6-0.7-15.2-1.9-22.8-2.6c-7.1-0.7-14.2-1.8-21.3-1.3c-12.4,0.8-24.8,2.8-37.2,4c-4.4,0.4-6.1,2-6.1,6.5
			c0.1,21.8,0.1,43.7,0,65.5c0,4.2,1.4,5.5,5.6,5.4C200.1,283.1,213.8,283.2,227.4,283.2z"/>
		<ellipse cx="227.6" cy="170.7" rx="0.8" ry="21.7"/>
		<path class="st0" d="M221.7,206.7c0,24.6,0,48.2,0,72.2C224.4,275.9,224.7,211.2,221.7,206.7z M233.4,207.6
			c-3,4.2-2.6,68.2,0,71.7C233.4,254.9,233.4,231.3,233.4,207.6z M202.5,210c-0.4-0.1-0.8-0.1-1.3-0.2c-0.3,1-0.9,2.1-0.9,3.1
			c-0.1,20.8-0.1,41.6,0,62.5c0,1.1,0.8,2.3,1.2,3.4c0.3-0.1,0.6-0.2,1-0.3C202.5,255.6,202.5,232.8,202.5,210z M252.5,279.2
			c3-4.1,3-65.8,0-69.8C252.5,232.8,252.5,255.6,252.5,279.2z M190.7,278.6c3-5.1,2.5-65,0-68C190.7,233.6,190.7,256.1,190.7,278.6z
			 M264.3,211.2c-0.4,0-0.9,0-1.3,0c0,22.5,0,45,0,67.5c0.4,0,0.9,0,1.3,0C264.3,256.1,264.3,233.6,264.3,211.2z M212.7,208.8
			c-0.4,0-0.7,0-1.1,0c0,23.3,0,46.5,0,69.8c0.4,0,0.7,0,1.1,0C212.7,255.3,212.7,232.1,212.7,208.8z M243.6,208.8c-0.3,0-0.7,0-1,0
			c0,23.3,0,46.5,0,69.8c0.3,0,0.7,0,1,0C243.6,255.3,243.6,232,243.6,208.8z"/>
		<path d="M221.7,206.7c3,4.5,2.7,69.2,0,72.2C221.7,254.9,221.7,231.2,221.7,206.7z"/>
		<path d="M233.4,207.6c0,23.7,0,47.3,0,71.7C230.8,275.8,230.4,211.8,233.4,207.6z"/>
		<path d="M202.5,210c0,22.8,0,45.6,0,68.5c-0.3,0.1-0.6,0.2-1,0.3c-0.4-1.1-1.2-2.3-1.2-3.4c-0.1-20.8-0.1-41.6,0-62.5
			c0-1,0.6-2.1,0.9-3.1C201.7,209.9,202.1,209.9,202.5,210z"/>
		<path d="M252.5,279.2c0-23.6,0-46.4,0-69.8C255.5,213.4,255.5,275.1,252.5,279.2z"/>
		<path d="M190.7,278.6c0-22.5,0-45,0-68C193.2,213.6,193.7,273.4,190.7,278.6z"/>
		<path d="M264.3,211.2c0,22.5,0,44.9,0,67.4c-0.4,0-0.9,0-1.3,0c0-22.5,0-45,0-67.5C263.4,211.1,263.8,211.1,264.3,211.2z"/>
		<path d="M212.7,208.8c0,23.2,0,46.5,0,69.7c-0.4,0-0.7,0-1.1,0c0-23.3,0-46.5,0-69.8C212,208.8,212.4,208.8,212.7,208.8z"/>
		<path d="M243.6,208.8c0,23.3,0,46.5,0,69.8c-0.3,0-0.7,0-1,0c0-23.3,0-46.5,0-69.8C242.9,208.8,243.3,208.8,243.6,208.8z"/>
	</g>
</g>
</svg>
