<?xml version="1.0" encoding="utf-8"?>
<!-- Generator: Adobe Illustrator 24.2.1, SVG Export Plug-In . SVG Version: 6.00 Build 0)  -->
<svg version="1.1" id="Layer_1" xmlns="http://www.w3.org/2000/svg" xmlns:xlink="http://www.w3.org/1999/xlink" x="0px" y="0px"
	 viewBox="0 0 456 456" style="enable-background:new 0 0 456 456;" xml:space="preserve">
<style type="text/css">
	.st0{fill:#FFFFFF;}
</style>
<path class="st0" d="M155.6,355.5c-12.7,0-23.5-4.6-32.4-13.9s-13.3-20.6-13.3-33.9H71.7l6.9-31.9h43.1c4.3-5,9.4-9,15.2-11.8
	s12.1-4.2,18.7-4.2c6.6,0,12.8,1.4,18.7,4.2s10.9,6.7,15.2,11.8h63.6l32-143.4H118.2l1.5-6.8c1.5-7.4,5-13.5,10.5-18.1
	c5.5-4.6,11.9-7,19.2-7h173.8l-14.1,63.8h44.6l45.7,63.8l-15.2,79.7h-30.5c0,13.3-4.4,24.6-13.3,33.9c-8.9,9.3-19.7,13.9-32.4,13.9
	c-12.7,0-23.5-4.6-32.4-13.9s-13.3-20.6-13.3-33.9h-61c0,13.3-4.4,24.6-13.3,33.9S168.3,355.5,155.6,355.5z M291.6,243.9h73.6
	l1.5-8.4l-28.2-39.4h-36.2L291.6,243.9z M284.4,135.2l0.8-2.8l-32,143.4l0.8-2.8l13-58.2L284.4,135.2z M56.5,249.1l7.6-31.9H148
	l-7.6,31.9H56.5z M87,190.9l7.6-31.9h99.1l-7.6,31.9H87z M155.6,323.6c4.3,0,7.9-1.5,10.9-4.6c2.9-3.1,4.4-6.8,4.4-11.4
	s-1.5-8.3-4.4-11.4c-2.9-3.1-6.5-4.6-10.9-4.6c-4.3,0-7.9,1.5-10.9,4.6s-4.4,6.8-4.4,11.4s1.5,8.3,4.4,11.4S151.3,323.6,155.6,323.6
	z M308,323.6c4.3,0,7.9-1.5,10.9-4.6c2.9-3.1,4.4-6.8,4.4-11.4s-1.5-8.3-4.4-11.4c-2.9-3.1-6.5-4.6-10.9-4.6
	c-4.3,0-7.9,1.5-10.9,4.6c-2.9,3.1-4.4,6.8-4.4,11.4s1.5,8.3,4.4,11.4C300.1,322.1,303.7,323.6,308,323.6z"/>
</svg>
